SplineFontDB: 1.0
FontName: MScore1-20
FullName: MuseScore 20
FamilyName: MScore1
Weight: 20
Copyright: This font is distributed under the GNU General Public License. As a special exception, if you create a document which uses this font, and embed this font or unaltered portions of this font into the document, this font does not by itself cause the resulting document to be covered by the GNU General Public License.
Version: 1.0
ItalicAngle: 0
UnderlinePosition: -50
UnderlineWidth: 25
Ascent: 300
Descent: 200
XUID: [1021 437 116440368 15390953]
UniqueID: 4011536
FSType: 0
OS2Version: 2
OS2_WeightWidthSlopeOnly: 0
OS2_UseTypoMetrics: 1
CreationTime: 1122244955
ModificationTime: 1169131540
PfmFamily: 17
TTFWeight: 400
TTFWidth: 5
LineGap: 45
VLineGap: 0
Panose: 2 0 5 3 0 0 0 0 0 0
OS2TypoAscent: 0
OS2TypoAOffset: 1
OS2TypoDescent: 0
OS2TypoDOffset: 1
OS2TypoLinegap: 45
OS2WinAscent: 0
OS2WinAOffset: 1
OS2WinDescent: 0
OS2WinDOffset: 1
HheadAscent: 0
HheadAOffset: 1
HheadDescent: 0
HheadDOffset: 1
OS2SubXSize: 325
OS2SubYSize: 350
OS2SubXOff: 0
OS2SubYOff: 70
OS2SupXSize: 325
OS2SupYSize: 350
OS2SupXOff: 0
OS2SupYOff: 240
OS2StrikeYSize: 24
OS2StrikeYPos: 129
OS2Vendor: 'PfEd'
ScriptLang: 1
 1 latn 1 dflt 
LangName: 1033 "" "" "" "FontForge 1.0 : MuseScore 20 : 29-12-2006" 
Encoding: UnicodeBmp
UnicodeInterp: none
NameList: Adobe Glyph List
DisplaySize: -96
AntiAlias: 1
FitToEm: 1
WinInfo: 57584 8 7
BeginPrivate: 8
BlueValues 30 [-2 0 133 146 236 236 250 250]
OtherBlues 9 [-73 -73]
BlueScale 8 0.039625
BlueShift 1 8
BlueFuzz 1 1
StdHW 4 [15]
StdVW 4 [58]
ExpansionFactor 4 0.06
EndPrivate
TeXData: 1 0 0 346030 173015 115343 276824 1048576 115343 783286 444596 497025 792723 393216 433062 380633 303038 157286 324010 404750 52429 2506097 1059062 262144
BeginChars: 65537 53
StartChar: plus
Encoding: 43 43 1
Width: 125
GlyphClass: 2
Flags: HMW
HStem: 112 26<19 50 30 50 76 95>
VStem: 50 26<92 112 82 112 138 158>
Fore
58 187 m 1
 63 188 70 186 73 182 c 1
 76 180 76 178 76 158 c 2
 76 138 l 1
 95 138 l 2
 116 138 117 138 120 136 c 1
 121 134 122 133 124 132 c 1
 124 130 125 128 125 126 c 0
 125 122 124 121 124 119 c 1
 122 118 121 116 120 115 c 0
 117 112 116 112 95 112 c 2
 76 112 l 1
 76 92 l 2
 76 71 76 70 73 68 c 1
 72 66 70 65 69 64 c 1
 67 63 66 63 63 63 c 0
 60 63 58 63 56 64 c 1
 52 68 l 2
 50 70 50 71 50 92 c 2
 50 112 l 1
 30 112 l 2
 8 112 8 112 5 115 c 0
 4 116 2 118 2 119 c 1
 0 121 0 122 0 126 c 0
 0 128 0 130 2 132 c 1
 2 133 4 134 5 136 c 1
 8 138 8 138 30 138 c 2
 50 138 l 1
 50 158 l 1
 50 179 l 1
 52 181 l 1
 53 184 56 186 58 187 c 1
EndSplineSet
EndChar
StartChar: comma
Encoding: 44 44 2
Width: 57
GlyphClass: 2
Flags: HMW
HStem: -78 136
VStem: 1 57
Fore
24 57 m 1
 24 58 28 58 30 58 c 0
 38 57 44 54 49 49 c 0
 56 42 58 32 58 18 c 0
 56 -8 48 -32 33 -66 c 0
 28 -76 28 -77 26 -78 c 0
 21 -80 14 -76 14 -72 c 0
 14 -71 16 -68 16 -66 c 1
 17 -64 20 -58 22 -52 c 0
 32 -31 35 -18 32 -10 c 0
 30 -4 28 -2 19 2 c 0
 13 4 12 6 8 8 c 1
 5 12 3 16 1 20 c 1
 0 24 0 33 2 38 c 0
 5 48 13 54 24 57 c 1
EndSplineSet
EndChar
StartChar: hyphen
Encoding: 45 45 3
Width: 83
GlyphClass: 2
Flags: HMW
HStem: 76 14<25 42 42 62>
VStem: 0 82<82 85>
Fore
4 90 m 1
 42 90 l 2
 82 90 80 90 82 88 c 0
 84 86 84 81 82 79 c 1
 80 76 82 76 42 76 c 0
 8 76 6 76 4 77 c 0
 2 78 0 80 0 84 c 0
 0 86 2 88 4 90 c 1
EndSplineSet
EndChar
StartChar: period
Encoding: 46 46 4
Width: 57
GlyphClass: 2
Flags: HMW
HStem: 1 55
VStem: 1 55
Fore
22 56 m 0
 32 59 42 56 49 49 c 0
 56 42 59 32 56 22 c 0
 55 16 53 12 49 8 c 1
 46 4 41 2 36 1 c 0
 26 -2 16 2 8 8 c 1
 2 16 -2 26 1 36 c 0
 2 41 4 46 8 49 c 1
 12 53 16 55 22 56 c 0
EndSplineSet
EndChar
StartChar: zero
Encoding: 48 48 5
Width: 183
GlyphClass: 2
Flags: HMW
HStem: 0 10G<87 97> 230 10G
VStem: 1 57<108 144> 125 58
Fore
82 250 m 1
 94 250 l 2
 106 250 114 248 126 242 c 0
 143 234 157 218 168 197 c 0
 174 184 178 171 180 156 c 0
 183 144 183 139 183 125 c 0
 183 108 182 96 178 80 c 0
 170 52 155 28 136 14 c 0
 130 10 121 6 116 4 c 0
 107 1 102 0 92 0 c 0
 82 0 76 1 68 4 c 0
 62 6 53 10 48 14 c 0
 22 32 6 65 1 106 c 0
 0 114 0 136 1 144 c 0
 4 164 8 181 16 197 c 0
 31 227 54 246 82 250 c 1
98 234 m 1
 94 236 89 236 85 234 c 1
 72 231 64 217 60 191 c 0
 58 180 58 172 58 133 c 0
 58 82 58 68 61 53 c 0
 64 38 68 27 74 21 c 0
 84 12 100 12 109 21 c 0
 116 27 120 38 122 53 c 0
 124 62 124 67 125 80 c 0
 126 96 126 172 124 180 c 1
 122 214 114 231 98 234 c 1
EndSplineSet
EndChar
StartChar: one
Encoding: 49 49 6
Width: 159
GlyphClass: 2
Flags: HMW
VStem: 58 58<120 151 151 184 184 184>
Fore
60 251 m 0
 61 252 63 252 72 248 c 0
 84 242 90 242 104 248 c 1
 106 250 110 250 110 250 c 1
 112 250 114 248 116 246 c 1
 116 151 l 2
 116 90 116 56 117 52 c 0
 119 33 130 18 144 13 c 0
 146 12 149 12 151 12 c 0
 156 12 156 11 158 9 c 1
 160 6 159 2 156 1 c 0
 153 0 144 0 120 4 c 0
 102 6 96 6 88 6 c 0
 80 6 73 6 55 4 c 0
 32 0 22 0 19 1 c 0
 16 2 15 6 17 9 c 0
 18 11 19 12 24 12 c 0
 26 12 30 12 31 13 c 2
 46 18 56 33 58 52 c 2
 58 184 l 1
 56 190 50 192 46 189 c 1
 46 188 38 172 29 153 c 0
 20 134 12 118 12 117 c 1
 7 112 -2 116 -1 122 c 1
 0 124 8 142 29 188 c 0
 45 222 59 250 60 251 c 0
EndSplineSet
EndChar
StartChar: two
Encoding: 50 50 7
Width: 183
GlyphClass: 2
Flags: HMW
HStem: 0 10G<111 119>
VStem: 0 184
Fore
74 250 m 0
 78 250 95 250 100 249 c 0
 112 247 124 244 134 238 c 0
 155 228 169 212 174 192 c 0
 176 187 176 186 176 177 c 0
 176 166 176 163 173 154 c 0
 168 135 156 120 136 108 c 0
 126 102 116 96 90 86 c 0
 84 84 76 80 71 78 c 0
 62 74 52 68 52 68 c 1
 57 68 l 1
 62 70 73 69 80 68 c 0
 92 65 104 60 116 52 c 0
 124 46 128 44 134 42 c 0
 144 38 155 38 162 42 c 1
 168 44 170 48 172 54 c 0
 173 57 175 58 178 58 c 0
 180 58 184 56 184 53 c 0
 184 51 180 42 178 38 c 0
 169 20 150 6 129 2 c 1
 125 0 122 0 116 0 c 0
 106 0 102 1 94 3 c 0
 84 6 77 11 68 20 c 0
 58 30 54 32 44 33 c 0
 35 34 26 30 20 24 c 0
 16 20 14 14 12 8 c 1
 11 2 10 2 8 0 c 1
 6 -1 2 0 0 4 c 1
 -1 7 2 22 6 32 c 0
 11 44 21 58 34 70 c 0
 42 76 46 80 59 89 c 0
 90 112 101 123 110 140 c 0
 112 144 115 154 116 159 c 0
 120 180 117 207 109 222 c 0
 102 234 92 239 80 238 c 0
 70 238 62 234 58 227 c 1
 58 220 l 2
 58 215 59 212 66 203 c 0
 69 199 72 195 73 193 c 0
 74 190 74 190 74 185 c 0
 74 176 71 168 64 162 c 1
 61 158 59 157 56 156 c 1
 45 150 36 150 25 156 c 0
 21 158 20 158 16 162 c 0
 13 165 12 167 10 170 c 1
 6 180 5 190 8 202 c 0
 16 228 42 246 74 250 c 0
EndSplineSet
EndChar
StartChar: three
Encoding: 51 51 8
Width: 166
GlyphClass: 2
Flags: HMW
HStem: 0 12 125 15<63 73> 238 12<64 84>
VStem: 108 50<184 204> 108 58<58 67 58 96 58 96>
Fore
64 250 m 1xf0
 70 250 88 250 96 249 c 0
 126 245 147 232 155 214 c 0
 158 206 158 202 158 190 c 0xf0
 158 178 158 172 156 166 c 0
 154 156 148 148 140 144 c 0
 135 142 134 140 132 136 c 0
 130 132 132 126 135 124 c 1
 136 122 138 121 141 120 c 1
 150 115 156 109 160 100 c 0
 165 90 167 80 166 67 c 0
 166 50 160 36 148 24 c 0
 133 10 110 1 82 0 c 0
 54 0 30 8 14 22 c 1
 8 30 4 36 2 44 c 2
 0 48 0 50 0 56 c 0
 0 62 0 63 2 67 c 1
 5 76 13 84 22 88 c 1
 26 89 28 89 33 89 c 0
 38 89 40 89 43 88 c 0
 56 84 64 72 66 59 c 1
 66 52 64 50 56 43 c 1
 52 41 50 38 48 38 c 1
 43 31 45 22 53 17 c 0
 60 12 75 10 83 12 c 0
 97 16 105 31 108 58 c 2xe8
 108 96 l 2
 106 114 101 122 90 124 c 1
 88 125 82 125 64 125 c 0
 40 125 40 125 38 128 c 1
 36 130 36 134 38 136 c 1
 39 140 39 140 63 140 c 2
 88 140 l 1
 93 141 96 142 100 145 c 1
 104 150 105 154 107 163 c 0
 108 169 108 195 108 204 c 0
 105 228 94 238 74 238 c 0
 62 238 51 234 48 228 c 1
 46 226 46 226 46 222 c 0
 46 219 46 218 47 216 c 0
 48 214 50 214 57 208 c 1
 59 207 61 205 62 204 c 1
 63 202 63 201 63 197 c 0
 63 186 56 176 44 171 c 1
 40 170 31 169 26 170 c 1
 17 174 10 180 7 190 c 0
 6 192 6 194 6 199 c 0
 6 206 7 210 10 216 c 0
 18 234 39 246 64 250 c 1xf0
EndSplineSet
EndChar
StartChar: four
Encoding: 52 52 9
Width: 200
GlyphClass: 2
Flags: HMW
HStem: 62 15<33 54 54 56 56 98 156 176>
VStem: 98 58<60 62 58 62 77 112 112 130> 146 10
Fore
148 250 m 0xc0
 152 252 158 248 158 244 c 1
 86 160 l 2
 47 114 15 78 15 77 c 1
 56 77 l 1
 98 77 l 1
 98 112 l 2xc0
 98 148 98 148 100 150 c 2
 100 152 102 154 108 158 c 0
 128 171 134 178 142 198 c 2
 144 201 146 204 146 205 c 1xa0
 148 206 152 207 154 206 c 1
 156 204 156 208 156 139 c 2
 156 77 l 1
 176 77 l 2
 192 77 194 77 196 76 c 0
 198 75 200 73 200 70 c 0
 200 66 198 64 196 64 c 2
 194 62 192 62 176 62 c 2
 156 62 l 1
 156 60 l 2
 156 56 157 48 158 44 c 0
 163 25 175 13 190 12 c 0
 196 12 196 11 198 9 c 1
 200 6 198 2 196 1 c 1
 192 0 183 0 160 4 c 0
 129 8 125 8 94 4 c 0
 71 0 62 0 58 1 c 1
 56 2 54 6 56 9 c 1
 58 11 58 12 64 12 c 0
 74 12 82 18 89 28 c 0
 94 36 98 48 98 60 c 2
 98 62 l 1
 54 62 l 2
 12 62 11 62 8 64 c 1
 2 65 -1 70 -1 74 c 0
 -1 76 0 77 4 82 c 0
 29 112 47 144 58 175 c 0
 64 196 68 211 69 238 c 0
 70 245 70 246 70 247 c 1
 73 250 74 250 84 248 c 0
 99 244 102 244 112 244 c 2
 126 244 l 1
 132 246 146 249 148 250 c 0xc0
EndSplineSet
EndChar
StartChar: five
Encoding: 53 53 10
Width: 168
GlyphClass: 2
Flags: HMW
HStem: 1 11 146 14<71 102 84 88> 230 10G
VStem: 14 15 116 58
Fore
18 249 m 1
 20 250 20 250 21 250 c 0
 22 250 27 249 34 248 c 0
 77 242 109 242 154 249 c 0
 159 250 163 250 164 250 c 0
 166 250 169 247 170 245 c 1
 170 243 169 242 164 237 c 0
 139 215 107 202 68 197 c 0
 60 196 44 195 37 195 c 0
 34 195 32 194 30 190 c 0
 29 188 29 188 29 164 c 2
 29 139 l 1
 33 142 l 2
 43 151 54 156 67 159 c 0
 72 160 74 160 84 160 c 2
 102 160 l 2
 146 154 170 131 174 90 c 0
 176 74 173 60 166 47 c 0
 162 40 158 34 152 28 c 0
 138 14 120 6 99 2 c 0
 90 0 73 0 64 1 c 0
 34 6 12 20 4 38 c 0
 1 45 0 48 0 56 c 0
 0 62 0 63 2 67 c 1
 5 76 13 84 22 88 c 1
 26 89 28 89 33 89 c 0
 38 89 40 89 43 88 c 0
 56 84 64 72 66 59 c 1
 66 52 64 50 56 43 c 0
 50 38 48 37 46 34 c 0
 44 30 46 24 49 20 c 1
 54 15 66 12 80 12 c 0
 96 12 106 21 112 42 c 0
 115 52 116 69 116 86 c 0
 115 121 106 141 88 146 c 1
 78 146 l 2
 64 146 54 143 44 138 c 0
 38 135 34 132 30 126 c 0
 27 122 26 122 24 121 c 1
 20 120 16 122 15 125 c 1
 14 126 14 136 14 185 c 2
 14 244 l 1
 16 246 l 1
 16 246 18 248 18 249 c 1
EndSplineSet
EndChar
StartChar: six
Encoding: 54 54 11
Width: 170
GlyphClass: 2
Flags: HMW
HStem: 0 10G<82 90> 128 11 238 12<88 94 94 96>
VStem: 116 54<64 76 64 80>
Fore
87 250 m 2
 94 250 l 2
 113 250 132 244 144 235 c 0
 154 228 160 220 162 210 c 1
 164 206 164 205 164 199 c 0
 164 193 164 192 162 188 c 1
 159 178 151 170 142 167 c 0
 138 166 136 166 132 166 c 0
 126 166 124 166 121 167 c 0
 108 172 99 184 99 197 c 0
 99 202 99 202 100 204 c 1
 104 208 l 1
 106 209 109 211 111 212 c 1
 113 214 116 216 116 218 c 1
 118 220 118 220 118 223 c 0
 118 226 118 227 116 229 c 1
 114 232 112 234 108 236 c 0
 104 238 99 238 93 238 c 0
 82 238 74 234 68 225 c 0
 60 212 57 196 58 156 c 2
 58 133 l 1
 63 135 l 2
 66 136 70 137 73 138 c 0
 78 139 79 139 88 139 c 0
 102 139 114 138 125 134 c 0
 146 126 160 114 166 95 c 0
 169 86 170 82 170 70 c 0
 170 59 169 54 166 46 c 0
 163 36 159 30 152 22 c 0
 140 11 124 4 102 1 c 2
 100 0 93 0 87 0 c 0
 76 0 72 1 64 4 c 0
 30 14 8 50 1 103 c 0
 0 112 0 135 1 143 c 0
 4 169 12 191 24 209 c 0
 38 230 58 244 80 248 c 1
 83 249 86 250 87 250 c 2
92 128 m 0
 86 129 78 128 72 125 c 0
 64 121 60 112 59 96 c 0
 58 88 58 52 59 44 c 0
 60 31 62 24 67 18 c 0
 74 11 89 9 100 15 c 0
 106 18 110 24 112 34 c 0
 115 44 116 49 116 70 c 0
 116 90 115 96 112 105 c 1
 110 118 103 125 92 128 c 0
EndSplineSet
EndChar
StartChar: seven
Encoding: 55 55 12
Width: 183
GlyphClass: 2
Flags: HMW
HStem: -2 10G<18 20 97 99> 230 10G
VStem: 0 14<129 216>
Fore
4 249 m 1
 6 250 10 250 12 248 c 1
 14 247 14 245 14 239 c 0
 14 235 14 234 16 232 c 1
 16 230 20 228 20 228 c 1
 21 228 22 229 24 230 c 1
 40 250 64 256 88 243 c 0
 94 240 98 236 104 231 c 0
 113 224 120 221 130 222 c 0
 144 222 157 230 168 244 c 0
 172 250 174 250 177 250 c 0
 181 250 184 246 184 242 c 1
 183 240 182 239 180 236 c 0
 174 226 156 199 151 192 c 0
 121 142 106 104 100 64 c 1
 100 44 l 2
 100 30 100 25 102 12 c 1
 104 6 104 4 103 3 c 1
 102 0 100 -2 98 -2 c 0
 96 -2 92 0 87 1 c 0
 72 6 68 6 58 6 c 0
 48 6 45 6 30 1 c 2
 24 0 20 -2 20 -2 c 1
 16 -2 13 2 13 4 c 0
 13 6 18 18 26 34 c 0
 45 72 67 106 108 162 c 2
 121 180 l 1
 124 184 l 1
 124 184 123 184 122 183 c 1
 118 181 110 178 106 177 c 0
 100 176 89 176 84 178 c 0
 76 180 70 183 63 190 c 0
 52 200 42 206 33 206 c 1
 26 205 20 200 18 190 c 1
 15 182 14 178 14 154 c 2
 14 129 l 1
 12 126 10 126 8 126 c 0
 4 126 2 126 1 129 c 1
 0 130 0 134 0 188 c 0
 0 245 0 246 2 247 c 1
 2 248 3 248 4 249 c 1
EndSplineSet
EndChar
StartChar: eight
Encoding: 56 56 13
Width: 183
GlyphClass: 2
Flags: HMW
HStem: 238 12<82 90>
VStem: 2 178
Fore
82 250 m 0
 89 250 106 250 113 249 c 0
 134 246 151 238 162 227 c 0
 174 216 178 202 175 186 c 0
 173 172 164 156 149 140 c 1
 144 136 l 1
 148 133 l 2
 157 128 164 122 170 115 c 0
 187 94 191 68 180 45 c 0
 168 22 144 6 110 1 c 0
 102 0 82 0 74 1 c 0
 54 4 36 12 23 22 c 0
 4 38 -4 64 2 86 c 0
 6 96 13 105 28 120 c 2
 38 130 l 1
 35 132 l 2
 27 138 18 148 14 157 c 0
 3 178 6 203 22 222 c 0
 36 237 56 247 82 250 c 0
111 237 m 0
 104 238 92 238 88 238 c 1
 80 236 74 233 68 228 c 1
 62 221 58 214 58 205 c 0
 58 196 60 188 66 182 c 0
 70 178 73 177 100 162 c 0
 115 152 128 145 129 144 c 1
 130 144 141 157 146 166 c 0
 151 174 154 183 154 192 c 0
 156 214 139 232 111 237 c 0
85 102 m 0
 68 112 54 120 53 120 c 0
 52 120 36 104 34 100 c 2
 25 89 22 78 22 67 c 0
 23 54 28 42 38 32 c 0
 48 22 60 16 76 13 c 0
 81 12 83 12 91 12 c 0
 98 12 100 12 104 13 c 0
 112 15 119 20 124 24 c 1
 140 42 138 70 120 82 c 1
 118 84 102 92 85 102 c 0
EndSplineSet
EndChar
StartChar: nine
Encoding: 57 57 14
Width: 170
GlyphClass: 2
Flags: HMW
HStem: 238 12<74 84 74 92>
VStem: 0 55<174 186>
Fore
74 250 m 0
 80 250 95 250 100 248 c 2
 112 246 124 240 134 230 c 0
 142 221 148 213 154 201 c 0
 162 185 166 168 169 147 c 0
 170 138 170 115 169 107 c 0
 166 81 158 59 146 41 c 0
 134 23 118 10 100 4 c 0
 69 -6 29 4 14 28 c 0
 11 32 9 35 8 40 c 2
 6 44 6 45 6 51 c 0
 6 57 6 58 8 62 c 1
 11 72 19 80 28 83 c 0
 32 84 34 84 39 84 c 0
 44 84 46 84 49 83 c 0
 62 78 71 66 71 53 c 0
 71 48 71 48 70 46 c 1
 66 42 l 1
 64 41 61 39 59 38 c 1
 57 36 54 34 54 32 c 1
 52 30 52 30 52 27 c 0
 52 24 52 23 54 21 c 1
 56 18 58 16 62 14 c 0
 66 12 71 12 77 12 c 0
 88 12 96 16 102 25 c 0
 110 38 113 54 112 94 c 2
 112 117 l 1
 107 115 l 2
 104 114 100 113 97 112 c 0
 92 111 91 111 82 111 c 0
 68 111 56 112 45 116 c 0
 24 124 10 136 4 155 c 0
 1 164 0 168 0 180 c 0
 0 191 1 196 4 204 c 0
 7 214 11 220 18 228 c 0
 31 240 48 247 74 250 c 0
92 238 m 1
 84 238 l 2
 70 238 61 231 58 216 c 0
 55 206 55 201 55 180 c 0
 55 160 55 154 58 145 c 0
 60 135 64 128 70 126 c 1
 81 120 96 122 103 129 c 0
 108 134 110 142 111 154 c 0
 112 162 112 198 111 206 c 0
 110 226 104 235 92 238 c 1
EndSplineSet
EndChar
StartChar: f
Encoding: 102 102 15
Width: 160
GlyphClass: 2
Flags: HMW
HStem: 122 20<35 68 35 68 52 63 132 144 144 146 146 153> 218 18<172 176 176 179>
VStem: -51 29<-64 -50>
Fore
166 236 m 2
 176 236 l 2
 185 236 191 234 198 231 c 0
 212 224 218 214 218 201 c 0
 218 196 218 189 216 184 c 0
 214 176 208 168 202 166 c 1
 191 160 176 165 172 177 c 1
 170 181 170 188 172 192 c 0
 173 194 176 196 180 198 c 0
 186 202 189 206 190 210 c 1
 190 216 188 217 179 218 c 0
 166 218 158 214 152 204 c 0
 145 194 141 182 134 154 c 1
 134 148 132 142 132 142 c 1
 146 142 l 2
 160 142 162 142 164 140 c 1
 168 138 170 134 168 128 c 1
 168 125 166 124 164 122 c 1
 144 122 l 1
 126 122 l 1
 113 78 l 2
 97 26 94 19 84 -2 c 0
 62 -46 34 -76 8 -84 c 0
 -5 -88 -18 -88 -30 -82 c 0
 -44 -75 -51 -64 -51 -52 c 0
 -51 -47 -50 -40 -48 -34 c 0
 -46 -26 -40 -18 -35 -16 c 0
 -24 -10 -9 -16 -4 -28 c 1
 -3 -32 -3 -39 -4 -42 c 1
 -6 -44 -8 -46 -12 -49 c 0
 -19 -53 -22 -56 -22 -61 c 0
 -22 -66 -20 -68 -12 -68 c 0
 -4 -68 -1 -68 4 -66 c 0
 12 -62 18 -53 22 -38 c 2
 24 -34 34 3 44 45 c 2
 63 122 l 1
 50 122 l 1
 35 122 l 1
 32 124 30 125 30 128 c 1
 28 134 30 138 35 140 c 1
 36 142 40 142 52 142 c 2
 68 142 l 1
 70 146 l 2
 75 160 85 178 96 192 c 0
 102 198 112 209 118 214 c 0
 134 226 150 234 166 236 c 2
EndSplineSet
EndChar
StartChar: m
Encoding: 109 109 16
Width: 219
GlyphClass: 2
Flags: HMW
HStem: 0 10G<83 90 90 102>
VStem: -20 246
Fore
46 149 m 1
 48 149 52 150 54 150 c 1
 58 149 59 149 62 148 c 1
 67 145 71 140 74 132 c 1
 74 128 l 1
 79 132 l 2
 91 144 106 150 116 150 c 1
 126 148 133 142 136 130 c 2
 137 127 l 1
 140 131 l 1
 154 144 170 152 182 148 c 0
 196 145 208 128 206 113 c 0
 206 111 202 92 197 70 c 0
 192 49 188 30 188 30 c 1
 188 28 189 26 191 26 c 0
 195 26 203 32 212 39 c 0
 218 44 220 46 223 45 c 0
 226 44 228 40 226 36 c 0
 224 32 207 18 196 10 c 0
 175 -4 154 -8 146 2 c 1
 143 4 142 7 142 12 c 0
 142 17 143 20 152 60 c 0
 164 106 164 108 162 112 c 1
 161 116 159 116 155 116 c 0
 150 116 142 110 138 104 c 1
 138 103 132 86 124 56 c 0
 116 30 110 8 110 8 c 2
 109 6 106 3 104 2 c 1
 102 0 l 1
 90 0 l 2
 76 0 74 0 72 3 c 1
 72 6 l 2
 72 7 78 30 86 56 c 0
 95 90 99 104 100 107 c 1
 100 116 95 119 86 114 c 0
 82 112 76 108 74 103 c 0
 73 101 66 80 57 54 c 0
 48 30 41 8 40 7 c 2
 39 4 36 2 33 1 c 0
 30 0 8 0 6 1 c 0
 4 2 2 4 2 6 c 0
 2 7 10 29 19 56 c 0
 36 108 36 108 34 112 c 1
 34 116 32 116 28 116 c 0
 18 116 7 102 -2 78 c 0
 -6 70 -7 68 -11 66 c 0
 -14 64 -18 64 -20 66 c 1
 -23 68 -22 71 -16 85 c 0
 -2 120 22 144 46 149 c 1
EndSplineSet
EndChar
StartChar: p
Encoding: 112 112 17
Width: 182
GlyphClass: 2
Flags: W
Fore
34 146 m 1
 38 146 46 146 52 144 c 0
 60 142 66 136 70 128 c 2
 72 126 72 123 73 122 c 1
 73 120 74 120 75 122 c 1
 77 124 84 130 90 134 c 0
 98 139 104 142 114 144 c 0
 120 146 132 146 139 144 c 0
 148 142 156 138 162 132 c 0
 170 124 174 116 177 104 c 0
 178 100 178 97 178 89 c 0
 178 76 176 67 172 55 c 0
 164 31 139 6 114 -2 c 0
 108 -4 102 -4 95 -4 c 0
 84 -4 76 -2 66 3 c 2
 62 4 59 6 58 6 c 0
 55 6 52 5 50 4 c 1
 49 2 35 -40 34 -42 c 1
 34 -48 38 -53 43 -56 c 0
 46 -58 48 -58 56 -59 c 0
 62 -60 64 -66 60 -70 c 1
 58 -73 58 -73 50 -72 c 0
 32 -71 22 -71 -2 -71 c 0
 -26 -71 -35 -71 -53 -72 c 0
 -61 -73 -62 -73 -64 -70 c 1
 -67 -68 -66 -62 -63 -60 c 0
 -62 -59 -61 -59 -49 -58 c 0
 -36 -57 -28 -56 -24 -54 c 0
 -21 -52 -18 -50 -16 -48 c 1
 -16 -46 35 102 36 108 c 1
 38 114 38 120 34 121 c 1
 32 122 28 122 24 120 c 0
 15 115 4 100 -6 76 c 2
 -10 68 l 1
 -16 64 -23 63 -26 68 c 0
 -28 71 -27 73 -18 90 c 0
 -2 124 14 141 34 146 c 1
122 120 m 0
 118 122 114 122 110 120 c 1
 92 116 76 88 68 52 c 0
 64 37 65 26 69 20 c 0
 76 12 94 15 104 28 c 0
 110 36 119 57 124 80 c 0
 130 100 130 108 126 116 c 1
 126 118 124 119 122 120 c 0
EndSplineSet
EndChar
StartChar: r
Encoding: 114 114 18
Width: 109
GlyphClass: 2
Flags: HMW
HStem: 0 10G<12 24> 110 43
Fore
107 153 m 1
 110 154 122 153 126 152 c 0
 136 149 143 143 144 134 c 0
 144 125 138 115 130 111 c 1
 126 110 126 110 122 110 c 0
 113 110 109 112 106 122 c 0
 104 128 102 130 100 131 c 0
 92 135 74 125 68 114 c 0
 67 112 62 94 54 60 c 0
 46 32 40 8 40 8 c 1
 38 4 36 2 33 1 c 0
 31 0 30 0 19 0 c 0
 6 0 5 0 3 2 c 1
 2 6 1 5 17 66 c 0
 30 118 32 123 32 127 c 0
 32 132 31 134 28 136 c 1
 26 138 22 137 18 136 c 1
 12 132 3 121 0 111 c 0
 -2 106 -9 102 -14 106 c 0
 -16 108 -16 110 -14 116 c 0
 -8 131 0 141 13 148 c 0
 32 158 56 154 66 138 c 1
 68 136 l 1
 70 138 l 1
 82 146 94 151 107 153 c 1
EndSplineSet
EndChar
StartChar: s
Encoding: 115 115 19
Width: 103
GlyphClass: 2
Flags: HMW
HStem: 0 10G<48 58> 126 10G
VStem: 12 108
Fore
74 146 m 1
 84 146 l 2
 92 146 97 144 104 141 c 0
 114 136 121 125 120 114 c 0
 120 106 116 100 110 98 c 0
 103 96 94 100 91 105 c 1
 90 108 90 110 92 112 c 1
 97 120 96 130 90 133 c 1
 87 134 84 134 80 133 c 0
 72 132 65 125 63 118 c 0
 60 108 64 101 76 94 c 0
 98 82 106 74 110 62 c 2
 112 60 112 58 112 52 c 0
 112 44 111 40 108 34 c 0
 104 23 94 13 82 7 c 0
 72 2 64 0 52 0 c 0
 43 0 38 1 31 5 c 0
 21 10 14 18 12 28 c 0
 9 39 14 52 22 55 c 0
 32 58 42 50 43 41 c 0
 43 37 42 36 38 32 c 1
 34 29 32 27 32 24 c 0
 32 17 44 12 56 14 c 0
 70 18 78 24 81 34 c 0
 84 44 78 54 66 63 c 0
 64 64 59 68 55 70 c 0
 42 78 38 82 34 89 c 2
 32 92 l 1
 32 99 l 2
 32 104 32 107 34 110 c 2
 35 115 38 122 42 126 c 1
 49 136 61 144 74 146 c 1
EndSplineSet
EndChar
StartChar: z
Encoding: 122 122 20
Width: 143
GlyphClass: 2
Flags: HMW
HStem: 6 27<24 52>
Fore
44 132 m 0
 48 133 55 133 60 132 c 1
 62 131 68 129 73 128 c 2
 86 122 89 122 100 122 c 0
 113 121 116 122 123 127 c 0
 124 128 126 128 127 128 c 0
 130 128 134 126 134 122 c 1
 135 118 137 120 89 75 c 2
 45 34 l 1
 48 33 l 1
 55 33 64 32 78 30 c 0
 107 26 114 26 120 32 c 0
 125 36 127 44 125 52 c 0
 124 56 124 58 125 60 c 0
 128 64 132 64 135 62 c 0
 137 61 138 58 140 50 c 0
 142 42 143 36 143 30 c 0
 142 6 122 -13 96 -14 c 0
 86 -15 80 -13 64 -4 c 0
 48 4 45 6 30 6 c 0
 19 6 17 6 14 4 c 1
 10 0 8 0 6 0 c 0
 4 0 2 2 1 4 c 0
 0 6 0 8 2 11 c 1
 2 12 22 32 46 54 c 2
 92 98 l 1
 94 100 l 1
 89 98 l 1
 72 98 l 2
 52 96 50 96 32 92 c 0
 24 90 20 90 17 92 c 0
 14 94 14 102 18 110 c 0
 22 120 34 130 44 132 c 0
EndSplineSet
EndChar
StartChar: uniE0F8
Encoding: 57592 57592 21
Width: 270
GlyphClass: 2
Flags: MW
VStem: 147 17<58 374 489.5 496 496 499>
Fore
147 437 m 1
 147 499 l 1
 156 499 l 1
 164 499 l 1
 164 496 l 2
 164 483 168 465 172 450 c 0
 180 427 190 409 214 369 c 0
 233 339 240 327 247 313 c 0
 257 292 264 274 266 256 c 0
 272 225 266 185 254 145 c 0
 250 133 248 128 246 127 c 1
 244 125 240 123 238 123 c 0
 236 123 231 125 230 127 c 2
 228 128 226 132 226 134 c 0
 226 135 227 138 228 141 c 0
 238 163 244 189 246 212 c 0
 248 221 248 235 247 241 c 0
 243 277 220 315 172 366 c 2
 164 374 l 1
 164 35 l 1
 147 58 l 1
 147 437 l 1
100 68 m 0
 106 69 120 68 125 68 c 1
 145 63 158 52 163 36 c 0
 164 30 164 18 164 12 c 1
 159 -8 145 -28 125 -44 c 0
 108 -56 88 -64 70 -68 c 0
 62 -69 47 -69 41 -68 c 0
 20 -64 6 -52 2 -35 c 1
 0 -30 0 -18 1 -12 c 0
 6 8 20 28 40 44 c 0
 58 58 79 66 100 68 c 0
EndSplineSet
EndChar
StartChar: uniE0F9
Encoding: 57593 57593 22
Width: 270
GlyphClass: 2
Flags: MW
VStem: 145 17<59 250 250 268 268 287 388.5 391 391 394 494 500> 242 22<266 270 262 279 262 279> 244.842 20.1575
Fore
145 375 m 1xa0
 145 500 l 1
 154 500 l 1
 162 500 l 1
 162 494 l 2
 164 474 169 455 180 434 c 0
 188 420 194 410 213 382 c 2
 231 356 l 2
 252 322 262 296 264 270 c 0xc0
 264 254 261 238 254 224 c 1
 254 221 252 218 252 218 c 1
 252 216 254 213 255 210 c 0
 260 198 264 182 266 168 c 0
 267 161 266 146 265 136 c 0
 263 116 257 94 248 72 c 0
 245 66 244 64 240 62 c 0
 237 61 235 61 232 62 c 0
 228 64 226 66 225 68 c 1
 224 72 224 74 227 80 c 0
 237 102 243 124 245 146 c 0
 246 167 244 182 234 201 c 0
 227 216 218 229 202 247 c 0
 196 254 172 278 166 284 c 1
 162 287 l 1
 162 268 l 1
 162 250 l 1
 162 35 l 1
 145 59 l 1
 145 375 l 1xa0
196 358 m 2
 194 362 184 372 176 380 c 2
 162 394 l 1
 162 391 l 2
 162 386 163 378 164 371 c 0
 166 358 171 347 178 333 c 0
 186 318 194 306 216 274 c 0
 222 264 230 252 234 248 c 1
 238 241 l 1
 240 244 l 1
 242 252 242 256 242 266 c 2
 242 279 l 1
 236 304 223 328 196 358 c 2
100 68 m 0
 106 69 120 68 125 68 c 1
 145 63 158 52 163 36 c 0
 164 30 164 18 164 12 c 1
 159 -8 145 -28 125 -44 c 0
 108 -56 88 -64 70 -68 c 0
 62 -69 47 -69 41 -68 c 0
 20 -64 6 -52 2 -35 c 1
 0 -30 0 -18 1 -12 c 0
 6 8 20 28 40 44 c 0
 58 58 79 66 100 68 c 0
EndSplineSet
EndChar
StartChar: uniE0FA
Encoding: 57594 57594 23
Width: 270
GlyphClass: 2
Flags: MW
VStem: 148 17<56 125 125 151 151 176 273.5 281 281 285 387 390.5 494 500> 239 22<246 280> 241 20<260 268.5> 248 21
Fore
148 312 m 1xc0
 148 500 l 1
 157 500 l 1
 165 500 l 1
 165 494 l 2
 167 466 177 440 199 403 c 2
 214 380 l 2
 231 354 239 342 245 328 c 0
 253 310 258 296 261 280 c 1xa0
 261 248 l 1xc0
 259 241 257 234 255 228 c 2
 253 222 l 1
 255 216 l 1
 261 204 263 194 265 182 c 0
 267 174 267 156 265 148 c 0
 263 137 260 126 257 118 c 1
 255 116 255 114 255 114 c 1
 258 108 l 2
 267 89 270 72 269 52 c 0
 269 26 263 0 251 -25 c 0
 247 -32 247 -34 243 -36 c 0
 240 -37 238 -37 235 -36 c 0
 231 -34 229 -32 228 -30 c 1
 227 -26 227 -24 229 -18 c 1
 240 2 246 24 248 46 c 0x90
 249 64 247 78 239 94 c 0
 231 111 219 126 201 144 c 2
 171 172 l 1
 165 176 l 1
 165 151 l 1
 165 125 l 1
 165 36 l 1
 148 56 l 1
 148 312 l 1xc0
173 385 m 1
 169 388 167 392 166 393 c 0
 165 394 165 394 165 387 c 0
 166 365 173 344 189 318 c 0
 193 310 201 298 217 278 c 2
 234 253 l 2
 236 250 238 246 239 246 c 1xc0
 239 247 240 255 241 260 c 1
 241 277 235 298 223 319 c 0
 213 338 197 358 173 385 c 1
175 276 m 0
 171 280 167 284 166 284 c 1
 165 285 l 1
 165 281 l 2
 165 266 170 247 179 230 c 0
 187 212 195 200 219 168 c 0
 229 155 235 146 239 140 c 0xc0
 241 137 241 136 243 146 c 0
 247 161 246 176 241 190 c 0xa0
 237 202 227 220 217 232 c 0
 207 245 191 262 175 276 c 0
100 68 m 0
 106 69 120 68 125 68 c 1
 145 63 158 52 163 36 c 0
 164 30 164 18 164 12 c 1
 159 -8 145 -28 125 -44 c 0
 108 -56 88 -64 70 -68 c 0
 62 -69 47 -69 41 -68 c 0
 20 -64 6 -52 2 -35 c 1
 0 -30 0 -18 1 -12 c 0
 6 8 20 28 40 44 c 0
 58 58 79 66 100 68 c 0
EndSplineSet
EndChar
StartChar: uniE0FB
Encoding: 57595 57595 24
Width: 270
GlyphClass: 2
Flags: MW
VStem: 146 17<21 49 49 77 172.5 184 184 189 282.5 297 297 302 399 409 409 415 515 521>
Fore
146 271 m 1
 146 521 l 1
 155 521 l 1
 163 521 l 1
 163 515 l 2
 165 487 175 461 197 425 c 0
 199 421 205 411 211 402 c 2
 233 365 l 2
 247 340 255 319 259 297 c 1
 259 289 259 271 258 263 c 0
 257 256 255 247 252 241 c 2
 250 237 l 1
 252 232 l 2
 255 225 259 215 261 208 c 0
 267 181 265 157 253 131 c 1
 251 123 l 1
 253 118 l 2
 258 107 261 95 263 83 c 0
 265 76 265 65 264 59 c 0
 263 47 257 35 250 25 c 1
 247 22 l 1
 251 15 l 2
 265 -13 270 -37 266 -67 c 0
 264 -88 257 -111 249 -130 c 0
 245 -137 245 -138 241 -140 c 0
 238 -141 236 -141 233 -140 c 0
 229 -139 227 -137 226 -134 c 0
 225 -131 225 -129 227 -123 c 1
 233 -113 239 -96 241 -85 c 0
 247 -65 247 -45 245 -31 c 0
 241 -11 229 9 209 33 c 0
 201 41 185 59 173 69 c 2
 163 77 l 1
 163 49 l 1
 163 21 l 1
 155 21 l 1
 146 21 l 1
 146 271 l 1
177 399 m 0
 173 403 168 409 167 411 c 1
 163 415 l 1
 163 409 l 2
 163 389 168 370 179 349 c 0
 186 334 195 321 215 291 c 2
 231 269 l 2
 233 265 236 262 236 263 c 1
 237 263 238 271 239 277 c 1
 239 293 234 313 224 333 c 0
 214 353 199 373 177 399 c 0
178 288 m 0
 172 293 167 299 165 300 c 1
 163 302 l 1
 163 297 l 2
 163 268 173 241 197 206 c 2
 212 183 l 2
 218 175 226 164 230 158 c 2
 237 147 l 1
 237 147 238 149 239 152 c 0
 243 163 244 177 243 187 c 0
 239 217 219 248 178 288 c 0
183 171 m 0
 176 177 169 185 167 187 c 1
 163 189 l 1
 163 184 l 2
 163 161 171 137 186 111 c 0
 193 99 199 91 216 68 c 0
 221 61 227 53 230 48 c 0
 233 44 235 41 236 41 c 0
 237 41 241 51 242 55 c 0
 247 73 241 96 226 119 c 0
 215 136 205 149 183 171 c 0
100 68 m 0
 106 69 120 68 125 68 c 1
 145 63 158 52 163 36 c 0
 164 30 164 18 164 12 c 1
 159 -8 145 -28 125 -44 c 0
 108 -56 88 -64 70 -68 c 0
 62 -69 47 -69 41 -68 c 0
 20 -64 6 -52 2 -35 c 1
 0 -30 0 -18 1 -12 c 0
 6 8 20 28 40 44 c 0
 58 58 79 66 100 68 c 0
EndSplineSet
EndChar
StartChar: uniE0FC
Encoding: 57596 57596 25
Width: 320
VWidth: 450
GlyphClass: 2
Flags: HMWO
VStem: 25.8212 244.5
Fore
240 215.201 m 1
 230.615 222.754 226.186 228.409 211.821 232 c 5
 204.321 232 183.321 233.5 174.321 232 c 4
 142.821 229 111.321 217 84.3213 196 c 0
 54.3213 172 33.3223 142 25.8223 112 c 0
 24.3223 103 24.3223 85 27.3223 77.5 c 1
 33.3223 52 54.3213 34 85.8213 28 c 0
 94.8213 26.5 117.321 26.5 129.321 28 c 0
 156.321 34 186.321 46 211.821 64 c 0
 241.821 88 262.821 118 270.321 148 c 1
 270.321 157 270.326 600 270.326 600 c 25
 240 600 l 25
 240 600 250.216 206.979 240 215.201 c 1
EndSplineSet
EndChar
StartChar: uniE0FF
Encoding: 57599 57599 26
Width: 125
GlyphClass: 2
Flags: W
Fore
-62 187 m 0
 -56 188 -44 187 -38 186 c 0
 -25 183 -14 177 -4 167 c 0
 6 156 13 144 16 128 c 0
 18 122 18 109 16 104 c 1
 14 93 7 86 -2 84 c 0
 -22 81 -37 92 -38 112 c 0
 -40 127 -32 140 -22 146 c 1
 -20 146 -19 147 -19 147 c 1
 -18 148 -22 154 -24 157 c 0
 -31 168 -45 174 -58 172 c 0
 -62 171 -70 168 -73 164 c 1
 -78 160 -82 153 -84 146 c 0
 -86 140 -86 128 -84 120 c 0
 -79 90 -59 64 -23 40 c 0
 -16 35 -1 26 0 26 c 1
 47 106 l 1
 94 186 l 2
 95 188 96 188 110 188 c 2
 125 188 l 1
 74 100 l 1
 23 14 l 1
 23 14 24 12 25 12 c 1
 32 8 46 0 53 -5 c 0
 95 -32 118 -61 124 -93 c 1
 124 -110 l 1
 124 -126 l 1
 122 -130 122 -134 120 -137 c 1
 109 -169 81 -189 50 -188 c 0
 32 -186 17 -180 4 -167 c 0
 -6 -156 -13 -144 -16 -128 c 0
 -18 -122 -18 -109 -16 -104 c 1
 -14 -93 -7 -86 2 -84 c 0
 22 -81 37 -92 38 -112 c 0
 40 -127 32 -140 22 -146 c 1
 20 -146 19 -147 19 -147 c 1
 18 -148 22 -154 24 -157 c 0
 31 -168 45 -174 58 -172 c 0
 62 -171 70 -168 73 -164 c 1
 78 -160 82 -153 84 -146 c 0
 86 -140 86 -128 84 -120 c 0
 79 -90 59 -64 23 -40 c 0
 16 -35 1 -26 0 -26 c 1
 -47 -106 l 1
 -94 -186 l 2
 -95 -188 -96 -188 -110 -188 c 2
 -125 -187 l 1
 -74 -100 l 1
 -23 -14 l 1
 -23 -14 -24 -12 -25 -12 c 1
 -32 -8 -46 0 -52 5 c 0
 -95 32 -118 61 -124 94 c 1
 -124 110 l 1
 -124 126 l 1
 -121 138 -118 146 -111 156 c 0
 -107 162 -100 170 -94 174 c 0
 -84 180 -73 186 -62 187 c 0
81 39 m 0
 88 42 96 38 100 32 c 1
 101 28 102 22 100 18 c 1
 98 16 96 14 93 12 c 0
 90 10 90 10 86 10 c 0
 82 10 82 10 80 12 c 1
 72 16 68 26 74 33 c 1
 75 36 78 38 81 39 c 0
-91 -11 m 0
 -84 -8 -76 -12 -72 -18 c 1
 -71 -22 -70 -28 -72 -32 c 1
 -74 -34 -76 -36 -79 -38 c 0
 -82 -40 -82 -40 -86 -40 c 0
 -90 -40 -90 -40 -92 -38 c 1
 -100 -34 -104 -24 -98 -17 c 1
 -97 -14 -94 -12 -91 -11 c 0
EndSplineSet
EndChar
StartChar: uniE100
Encoding: 57600 57600 27
Width: 127
GlyphClass: 2
Flags: MW
HStem: -8 16<-118.5 -84 -106 -84 -46 -27 -27 -8 8 27 27 46 84 106> 108 16<13 13>
VStem: -82 36<-20 -17 18 20 -20 25.5> -8 16<-148 -124 -110 -58 -58 -8 8 58 58 110 124 148> 46 36<-20 -17 -25 -8 -25 -8 18 20 20 25.5>
CounterMasks: 1 00
Fore
-4 176 m 1
 -2 177 2 176 4 175 c 0
 8 173 8 173 8 148 c 2
 8 124 l 1
 12 124 l 1
 38 119 59 99 72 67 c 0
 78 52 82 33 82 18 c 1
 83 15 83 12 84 10 c 1
 84 8 l 1
 106 8 l 2
 126 8 129 8 130 6 c 1
 133 5 134 4 134 0 c 0
 134 -4 133 -5 130 -6 c 1
 129 -8 126 -8 106 -8 c 2
 84 -8 l 1
 84 -10 l 1
 83 -12 83 -15 82 -17 c 1
 82 -33 78 -52 72 -67 c 0
 59 -99 38 -119 12 -124 c 1
 8 -124 l 1
 8 -148 l 2
 8 -168 8 -171 6 -172 c 1
 5 -175 4 -176 0 -176 c 0
 -4 -176 -5 -175 -6 -172 c 1
 -8 -171 -8 -168 -8 -148 c 2
 -8 -124 l 1
 -12 -124 l 1
 -38 -119 -59 -99 -72 -67 c 0
 -78 -52 -82 -33 -82 -17 c 1
 -83 -15 -83 -12 -84 -10 c 1
 -84 -8 l 1
 -106 -8 l 2
 -131 -8 -131 -8 -133 -4 c 0
 -134 -2 -134 2 -133 4 c 0
 -131 8 -131 8 -106 8 c 2
 -84 8 l 1
 -84 10 l 1
 -83 12 -83 15 -82 18 c 1
 -82 33 -78 52 -72 67 c 0
 -59 99 -38 119 -12 124 c 1
 -8 124 l 1
 -8 148 l 2
 -8 172 -7 172 -6 174 c 1
 -6 174 -4 175 -4 176 c 1
-8 58 m 1
 -8 110 l 1
 -10 110 -16 107 -18 106 c 0
 -37 96 -45 71 -46 20 c 2
 -46 8 l 1
 -27 8 l 1
 -8 8 l 1
 -8 58 l 1
13 108 m 1
 11 108 9 109 8 110 c 1
 8 58 l 1
 8 8 l 1
 27 8 l 1
 46 8 l 1
 46 20 l 2
 46 44 44 59 40 72 c 0
 36 92 26 104 13 108 c 1
-8 -58 m 1
 -8 -8 l 1
 -27 -8 l 1
 -46 -8 l 1
 -46 -20 l 2
 -45 -59 -41 -80 -31 -94 c 0
 -26 -102 -20 -106 -8 -110 c 1
 -8 -58 l 1
46 -20 m 2
 46 -8 l 1
 27 -8 l 1
 8 -8 l 1
 8 -58 l 1
 8 -110 l 1
 20 -106 26 -102 31 -94 c 0
 41 -80 45 -59 46 -20 c 2
EndSplineSet
EndChar
StartChar: uniE101
Encoding: 57601 57601 28
Width: 256
GlyphClass: 2
Flags: MW
HStem: -104 19.6048 -104 21<166 167 166 168 166 167>
VStem: 1 30.8267 168 21<-116 -104 -104 -104>
Fore
120 498 m 0xb0
 124 500 128 499 134 493 c 0
 147 479 158 462 170 440 c 0
 182 412 191 386 193 363 c 0
 196 343 192 320 186 298 c 0
 176 270 160 241 132 203 c 2
 126 194 l 1
 130 184 l 2
 136 168 147 134 152 119 c 2
 155 106 l 1
 161 106 l 2
 198 102 229 81 246 48 c 0
 259 20 260 -12 250 -38 c 0
 240 -64 218 -88 194 -97 c 1
 189 -98 l 1
 189 -120 l 2
 188 -142 188 -152 186 -168 c 0
 182 -218 154 -256 116 -262 c 1
 110 -264 100 -264 93 -264 c 0
 54 -260 24 -234 17 -198 c 0
 16 -194 16 -191 16 -184 c 0
 16 -178 16 -176 17 -173 c 0
 22 -157 36 -146 53 -142 c 0
 62 -140 71 -142 79 -146 c 1
 83 -149 90 -156 92 -160 c 0
 98 -170 100 -181 98 -190 c 0
 95 -203 87 -213 76 -218 c 0
 70 -220 64 -221 60 -221 c 1
 56 -220 l 1
 58 -223 l 2
 64 -231 76 -238 86 -240 c 0
 102 -245 118 -242 131 -234 c 0
 148 -222 160 -200 164 -175 c 0
 166 -164 168 -136 168 -116 c 2
 168 -104 l 1
 166 -104 l 1x70
 156 -106 152 -106 141 -106 c 0
 128 -106 124 -106 113 -104 c 0
 92 -100 71 -90 54 -76 c 0
 48 -71 37 -60 32 -54 c 0
 16 -33 6 -10 2 17 c 0
 0 26 0 47 1 56 c 0
 4 80 10 99 22 123 c 0
 34 146 48 166 78 206 c 2
 92 224 l 1
 92 224 90 228 88 234 c 0
 70 276 64 302 60 334 c 0
 58 350 58 374 59 386 c 0
 62 418 74 448 94 473 c 0
 101 482 116 496 120 498 c 0xb0
151 431 m 2
 150 434 148 436 147 436 c 1
 146 438 l 1
 144 436 l 1
 122 423 106 405 95 383 c 0
 87 366 83 350 82 332 c 0
 82 318 84 308 96 276 c 0
 99 265 106 246 107 245 c 1
 107 244 110 248 118 260 c 0
 150 308 164 348 163 389 c 0
 162 408 160 416 151 431 c 2
114 166 m 2
 111 174 l 1
 110 174 90 148 83 138 c 0
 50 91 34 54 31 15 c 0
 30 -3 32 -15 38 -28 c 0
 42 -36 47 -42 54 -50 c 0
 64 -59 72 -66 86 -72 c 0
 98 -78 110 -82 124 -84 c 0
 133 -86 158 -85 166 -83 c 1
 167 -83 l 1
 167 -76 l 2
 165 -46 160 -8 153 28 c 0
 150 40 146 60 146 60 c 1
 146 60 136 60 132 58 c 1
 111 53 98 40 94 21 c 0
 90 0 102 -21 124 -34 c 1
 130 -36 131 -38 132 -42 c 1
 132 -46 130 -50 126 -52 c 1
 124 -54 124 -54 121 -54 c 0
 118 -54 117 -54 112 -51 c 0
 94 -42 80 -28 72 -12 c 0
 62 8 61 30 68 52 c 0
 78 79 102 99 130 104 c 1
 134 106 l 1
 134 106 121 147 114 166 c 2
176 56 m 0
 170 58 168 59 168 58 c 2
 170 48 l 2
 178 11 184 -28 186 -60 c 0
 188 -74 188 -76 188 -76 c 1
 188 -76 190 -76 192 -74 c 2
 210 -64 222 -48 226 -28 c 0
 227 -21 227 -8 226 0 c 0
 220 26 202 48 176 56 c 0
EndSplineSet
EndChar
StartChar: uniE107
Encoding: 57607 57607 29
Width: 58
VWidth: 499
GlyphClass: 2
Flags: HMW
HStem: 1 178<18 19 19 19 16 20>
VStem: -4 64
Fore
16 180 m 1
 19 180 l 2
 20 180 25 174 39 156 c 0
 49 144 58 134 58 133 c 0
 61 130 61 128 60 124 c 0
 59 120 55 116 46 108 c 0
 43 106 40 103 39 102 c 2
 33 96 30 88 30 80 c 0
 30 74 32 68 37 64 c 1
 38 62 51 46 56 42 c 0
 58 38 58 38 57 36 c 1
 56 34 54 32 52 34 c 1
 50 36 l 2
 44 42 28 46 20 42 c 0
 18 42 16 40 15 36 c 0
 12 28 14 12 20 4 c 0
 21 2 21 2 20 1 c 0
 20 0 18 0 18 1 c 1
 17 2 13 6 11 10 c 2
 5 18 0 30 -3 38 c 0
 -6 47 -6 54 -4 58 c 1
 -4 60 -3 60 -1 61 c 1
 4 64 20 60 34 55 c 2
 34 54 l 1
 34 56 l 1
 33 56 23 68 9 84 c 0
 -1 96 -2 96 -1 100 c 2
 -1 104 l 1
 1 108 5 112 14 120 c 1
 16 122 20 124 20 126 c 1
 29 134 32 146 27 156 c 1
 26 160 25 162 19 168 c 1
 16 171 14 174 14 174 c 1
 13 176 14 178 16 180 c 1
EndSplineSet
EndChar
StartChar: uniE109
Encoding: 57609 57609 30
Width: 125
GlyphClass: 2
Flags: MW
HStem: -130 232
VStem: -1 126<63.5 85>
Fore
28 102 m 0
 36 104 44 102 52 98 c 1
 59 92 62 86 66 73 c 1
 68 60 70 57 74 54 c 1
 80 52 82 53 88 58 c 0
 94 62 106 76 110 84 c 1
 111 85 112 87 114 88 c 1
 116 90 122 90 124 86 c 1
 125 85 l 1
 95 -18 l 2
 78 -75 64 -122 64 -124 c 1
 63 -126 56 -130 50 -130 c 0
 46 -130 41 -128 38 -126 c 1
 36 -126 36 -125 36 -125 c 1
 64 -44 l 1
 94 38 l 1
 88 36 l 2
 64 28 43 25 30 28 c 0
 18 32 8 40 3 50 c 0
 0 56 -1 60 -1 67 c 0
 -1 72 -1 74 0 78 c 0
 4 90 14 99 28 102 c 0
EndSplineSet
EndChar
StartChar: uniE10A
Encoding: 57610 57610 31
Width: 150
GlyphClass: 2
Flags: MW
VStem: -12 162<-58 85 -48 85>
Fore
55 102 m 0
 63 104 72 102 79 98 c 1
 86 92 90 86 93 73 c 0
 96 60 98 57 102 54 c 1
 107 52 110 54 116 58 c 1
 120 62 126 70 132 78 c 0
 138 88 138 88 140 88 c 1
 143 90 147 90 149 86 c 1
 150 85 l 1
 106 -82 l 2
 81 -173 61 -248 60 -249 c 2
 60 -250 56 -253 52 -254 c 0
 46 -256 40 -255 35 -252 c 1
 34 -250 32 -250 32 -250 c 1
 34 -247 82 -88 82 -88 c 2
 82 -87 79 -88 75 -90 c 1
 66 -92 56 -95 48 -96 c 0
 38 -98 24 -98 19 -96 c 1
 7 -94 -4 -86 -8 -76 c 1
 -12 -70 -12 -66 -12 -58 c 2
 -12 -48 l 1
 -8 -40 -4 -33 3 -28 c 0
 17 -20 35 -21 46 -32 c 0
 50 -36 52 -42 54 -52 c 0
 57 -66 58 -68 63 -70 c 1
 68 -73 72 -72 79 -64 c 0
 86 -57 95 -45 98 -38 c 1
 98 -36 121 37 121 38 c 1
 121 38 118 37 114 36 c 0
 90 28 70 25 58 28 c 0
 46 32 36 40 30 50 c 0
 27 56 26 60 26 67 c 0
 26 72 26 74 28 78 c 0
 32 90 42 99 55 102 c 0
EndSplineSet
EndChar
StartChar: uniE10B
Encoding: 57611 57611 32
Width: 162
GlyphClass: 2
Flags: HMW
Fore
70 226 m 0
 78 228 87 227 94 222 c 1
 102 218 105 212 108 198 c 0
 111 184 112 182 117 180 c 0
 121 178 124 178 126 180 c 0
 131 184 139 194 146 206 c 0
 150 212 151 214 154 214 c 0
 158 214 160 213 162 211 c 1
 162 210 162 209 109 -19 c 0
 79 -145 55 -248 54 -249 c 1
 54 -252 46 -255 40 -255 c 0
 35 -255 26 -251 26 -249 c 1
 27 -248 69 -90 70 -88 c 1
 70 -86 l 1
 63 -89 l 2
 52 -92 43 -95 34 -96 c 2
 28 -98 25 -98 17 -98 c 0
 6 -98 3 -97 -5 -93 c 0
 -16 -88 -23 -80 -26 -68 c 2
 -28 -66 -28 -64 -28 -58 c 0
 -28 -52 -28 -52 -26 -48 c 2
 -24 -40 -18 -33 -12 -28 c 1
 2 -20 20 -21 30 -32 c 0
 34 -36 36 -42 39 -52 c 0
 42 -66 44 -68 48 -70 c 0
 54 -72 57 -72 64 -65 c 0
 70 -59 78 -48 82 -40 c 1
 82 -38 102 38 102 38 c 1
 102 38 99 37 94 36 c 1
 85 32 76 30 68 28 c 1
 58 27 44 27 38 28 c 1
 26 32 16 40 11 50 c 0
 8 56 7 60 7 67 c 0
 7 72 7 74 8 78 c 0
 11 85 16 92 22 96 c 0
 36 106 54 104 65 92 c 0
 69 88 71 83 74 73 c 0
 76 60 78 57 82 54 c 1
 88 52 90 54 96 58 c 1
 101 63 110 74 114 82 c 1
 114 85 118 94 125 124 c 0
 131 145 136 162 135 162 c 2
 135 162 132 162 127 160 c 0
 110 154 98 152 86 152 c 0
 75 152 72 153 64 157 c 0
 53 162 46 170 42 182 c 1
 42 192 l 1
 42 202 l 1
 47 215 57 224 70 226 c 0
EndSplineSet
EndChar
StartChar: uniE10C
Encoding: 57612 57612 33
Width: 175
GlyphClass: 2
Flags: MW
VStem: -33 207
Fore
84 226 m 0
 92 228 102 227 108 222 c 1
 116 218 120 212 122 198 c 0
 126 184 127 182 132 180 c 0
 136 178 138 178 140 180 c 0
 145 184 152 192 158 205 c 0
 162 214 164 214 168 214 c 0
 171 214 173 214 174 211 c 1
 175 210 168 177 117 -80 c 0
 84 -240 58 -371 58 -372 c 0
 58 -375 57 -376 55 -376 c 1
 52 -378 47 -380 44 -380 c 0
 40 -380 35 -378 32 -376 c 1
 30 -376 30 -375 30 -374 c 0
 31 -369 66 -212 66 -212 c 1
 66 -212 64 -212 61 -213 c 0
 36 -222 12 -225 -2 -222 c 0
 -14 -218 -24 -210 -29 -200 c 0
 -32 -194 -33 -190 -33 -183 c 0
 -33 -178 -33 -176 -32 -172 c 0
 -29 -165 -24 -158 -18 -154 c 0
 -4 -144 14 -146 25 -158 c 0
 29 -162 31 -167 34 -177 c 0
 36 -190 38 -193 42 -196 c 1
 48 -198 51 -196 56 -192 c 0
 62 -186 71 -174 75 -166 c 1
 78 -162 78 -159 86 -124 c 0
 90 -104 94 -87 94 -86 c 1
 94 -86 90 -88 87 -89 c 0
 62 -97 41 -100 28 -96 c 0
 16 -94 6 -86 0 -76 c 0
 -3 -70 -4 -66 -4 -58 c 0
 -4 -52 -4 -52 -2 -48 c 2
 0 -40 6 -33 12 -28 c 1
 26 -20 44 -21 54 -32 c 0
 58 -36 60 -42 63 -52 c 0
 66 -66 68 -68 72 -70 c 0
 78 -72 80 -72 87 -66 c 1
 93 -59 101 -46 104 -40 c 0
 105 -38 122 38 122 38 c 1
 114 36 l 2
 104 32 95 30 87 28 c 0
 78 27 64 27 58 28 c 1
 46 32 36 40 30 50 c 0
 27 56 26 60 26 67 c 0
 26 72 26 74 28 78 c 0
 30 85 36 92 42 96 c 0
 56 106 74 104 84 92 c 0
 88 88 90 83 93 73 c 0
 96 60 98 57 102 54 c 1
 106 53 108 53 111 55 c 0
 116 58 124 70 130 81 c 0
 132 86 133 88 141 122 c 0
 146 142 149 160 150 161 c 1
 150 163 l 1
 144 161 l 2
 136 158 125 155 117 154 c 2
 111 152 108 152 100 152 c 0
 90 152 86 153 78 157 c 0
 68 162 60 170 57 182 c 1
 56 184 56 186 56 192 c 0
 56 198 56 198 57 202 c 0
 62 215 72 224 84 226 c 0
EndSplineSet
EndChar
StartChar: uniE10E
Encoding: 57614 57614 34
Width: 137
GlyphClass: 2
Flags: MW
VStem: 0 48<-182 -81.5> 29 19<-159.5 -140 -140 -134.5 -27.5 -17 -17 -8 -8 -6 121 134> 89 19<-121 -116 -116 -83 -83 -83 7 9 9 18 18 48 48 48 135 140 140 144 144 157> 89 49<-121 -32 -83 -32 -49.5 9 -49.5 48>
Fore
95 186 m 1x20
 100 189 106 186 108 182 c 1
 108 144 l 2x20
 108 126 108 110 109 110 c 1
 117 113 l 2
 121 114 126 116 127 116 c 0
 131 117 135 114 136 111 c 1
 138 109 138 107 138 92 c 0x10
 138 72 138 72 134 69 c 2
 134 68 129 66 121 62 c 2
 108 57 l 1
 108 18 l 2x20
 108 -4 108 -22 109 -22 c 1
 117 -18 l 1
 121 -17 126 -15 127 -15 c 0
 131 -14 135 -17 136 -20 c 1
 138 -22 138 -24 138 -40 c 0x10
 138 -59 138 -60 134 -62 c 2
 134 -64 129 -66 121 -70 c 1
 108 -74 l 1
 108 -116 l 1
 108 -160 l 1
 104 -167 94 -168 90 -160 c 1
 90 -159 89 -155 89 -121 c 2
 89 -83 l 1
 68 -92 l 1
 48 -100 l 1xa0
 48 -140 l 1
 48 -182 l 1
 44 -190 33 -190 30 -182 c 0
 29 -180 29 -175 29 -144 c 0x40
 29 -125 29 -109 28 -109 c 1
 20 -112 l 2
 16 -114 12 -116 10 -116 c 0
 6 -116 2 -114 1 -110 c 1
 0 -108 0 -106 0 -91 c 0x80
 0 -72 0 -72 3 -68 c 1
 4 -68 8 -65 16 -62 c 2
 29 -56 l 1
 29 -17 l 2x40
 29 5 29 22 28 22 c 1
 20 19 l 2
 16 18 12 16 10 16 c 1
 6 15 2 18 1 21 c 0
 0 23 0 25 0 40 c 0x80
 0 60 0 60 3 63 c 0
 4 64 8 66 16 70 c 2
 29 75 l 1
 29 116 l 2
 29 152 29 158 30 160 c 0
 33 167 44 168 48 160 c 1
 48 121 l 1
 49 84 l 1
 69 92 l 1
 89 101 l 1x50
 89 140 l 2
 89 174 89 180 90 182 c 0
 91 184 92 186 95 186 c 1x20
89 9 m 1
 89 48 l 1
 68 40 l 1
 48 32 l 1xa0
 48 -8 l 2
 48 -47 48 -48 50 -48 c 1
 70 -39 l 1
 89 -30 l 1x50
 89 9 l 1
EndSplineSet
EndChar
StartChar: uniE10F
Encoding: 57615 57615 35
Width: 87
GlyphClass: 2
Flags: MW
VStem: 34 20<-130 -124 -124 -100 -100 -100 -30 -7 -7 8 8 31 31 31 101 124 124 131> 34 54<-130 -32 -100 -32 -45 -32 -49 -7 -49 31 86 99.5>
Fore
40 168 m 1x80
 44 170 50 168 52 163 c 1
 54 161 54 159 54 131 c 2
 54 101 l 1x80
 64 108 l 2
 74 116 76 117 80 116 c 1
 82 116 86 114 86 111 c 2
 88 109 88 108 88 91 c 0x40
 88 74 88 74 86 72 c 2
 86 70 83 68 70 58 c 2
 54 46 l 1
 54 8 l 1
 54 -30 l 1x80
 64 -23 l 2
 74 -15 76 -14 80 -15 c 1
 82 -16 86 -18 86 -20 c 2
 88 -22 88 -24 88 -40 c 0x40
 88 -58 88 -58 86 -60 c 2
 86 -62 83 -64 70 -74 c 2
 54 -86 l 1
 54 -124 l 2
 54 -156 54 -161 52 -162 c 1
 50 -170 38 -170 35 -162 c 1
 34 -161 34 -159 34 -130 c 2
 34 -100 l 1x80
 24 -108 l 2
 14 -116 12 -116 8 -116 c 0
 6 -116 2 -113 1 -110 c 0
 0 -108 0 -107 0 -90 c 0
 0 -74 0 -73 1 -71 c 0
 2 -69 4 -67 18 -57 c 2
 34 -45 l 1x40
 34 -7 l 1
 34 31 l 1x80
 24 24 l 2
 14 16 12 15 8 16 c 1
 6 16 2 18 1 21 c 0
 0 23 0 24 0 41 c 0
 0 58 0 58 1 60 c 0
 2 62 4 64 18 74 c 2
 34 86 l 1x40
 34 124 l 2
 34 156 34 161 35 162 c 2
 36 165 38 166 40 168 c 1x80
EndSplineSet
EndChar
StartChar: uniE110
Encoding: 57616 57616 36
Width: 200
GlyphClass: 2
Flags: MW
HStem: -72 21G<166.5 167.5>
VStem: 34 20<-144 -142 -142 -110 -110 -110 -53 -18 -18 -13 -13 22 22 22 78 112 112 116> 90 20<-130 -128 -128 -94 -94 -94 -16 -2 -2 3 3 38 38 38 113 128 128 145.5> 147 19<-115 -112 -153 -78 -22 14 14 19 110 142 142 145 145 158.5>
Fore
153 186 m 1
 158 189 164 186 166 182 c 1
 166 145 l 1
 166 110 l 1
 178 114 l 1
 184 115 190 116 191 116 c 0
 194 116 198 114 200 111 c 1
 200 92 l 1
 200 72 l 1
 199 70 198 68 196 68 c 1
 194 66 168 59 167 59 c 0
 166 59 166 41 166 19 c 2
 166 -22 l 1
 178 -18 l 2
 184 -16 190 -15 191 -15 c 0
 194 -15 198 -18 200 -20 c 1
 200 -40 l 1
 200 -60 l 1
 199 -62 198 -64 196 -64 c 1
 194 -65 168 -72 167 -72 c 0
 166 -72 166 -90 166 -112 c 2
 166 -153 l 1
 162 -160 152 -161 148 -154 c 1
 148 -152 147 -148 147 -115 c 2
 147 -78 l 1
 128 -84 l 1
 110 -88 l 1
 110 -128 l 2
 110 -162 110 -166 109 -168 c 0
 105 -175 95 -174 92 -167 c 1
 90 -166 90 -163 90 -130 c 2
 90 -94 l 1
 89 -94 81 -96 71 -100 c 1
 54 -104 l 1
 54 -142 l 2
 54 -174 54 -180 52 -182 c 1
 50 -190 38 -190 35 -182 c 0
 34 -180 34 -175 34 -144 c 2
 34 -110 l 1
 22 -113 l 2
 16 -114 10 -116 10 -116 c 1
 6 -116 2 -114 1 -110 c 1
 0 -108 0 -106 0 -91 c 0
 0 -76 0 -73 1 -72 c 1
 2 -70 3 -68 5 -67 c 2
 6 -66 33 -58 34 -58 c 1
 34 -18 l 1
 34 22 l 1
 22 18 l 1
 10 16 l 2
 6 16 2 18 1 22 c 2
 0 23 0 25 0 40 c 0
 0 55 0 58 1 60 c 0
 2 62 3 64 5 64 c 1
 6 66 33 73 34 73 c 1
 34 112 l 2
 34 146 34 152 35 153 c 1
 38 160 48 161 52 154 c 0
 53 152 54 148 54 116 c 2
 54 78 l 1
 72 84 l 1
 90 89 l 1
 90 128 l 2
 90 163 91 167 92 168 c 1
 96 176 106 175 109 168 c 0
 110 166 110 164 110 130 c 0
 110 96 110 94 111 94 c 1
 112 95 120 97 130 100 c 2
 147 104 l 1
 147 142 l 2
 147 175 147 180 148 182 c 0
 149 184 150 186 153 186 c 1
147 14 m 1
 147 54 l 1
 147 54 138 51 128 48 c 2
 110 43 l 1
 110 3 l 2
 110 -35 110 -37 111 -37 c 1
 112 -36 120 -34 130 -32 c 2
 147 -27 l 1
 147 14 l 1
90 -2 m 1
 90 38 l 1
 72 32 l 1
 54 28 l 1
 54 -13 l 1
 54 -53 l 1
 57 -52 l 1
 58 -52 67 -49 76 -47 c 2
 90 -42 l 1
 90 -2 l 1
EndSplineSet
EndChar
StartChar: uniE111
Encoding: 57617 57617 37
Width: 83
GlyphClass: 2
Flags: MW
VStem: -4 26<178 188 171.5 188> -2 23 62 25<-188 -178 -188 -175 -188 -129> 64 21<-48 -34>
Fore
3 190 m 2x40
 8 192 14 191 19 189 c 2
 22 188 l 1
 22 175 l 2x80
 22 168 22 147 21 129 c 0
 20 111 20 96 20 96 c 1
 21 96 33 98 48 101 c 0
 66 104 75 106 76 106 c 0
 79 106 81 104 82 101 c 1
 84 99 l 1
 85 -34 l 2x50
 86 -108 87 -172 87 -178 c 2
 87 -188 l 1x20
 84 -189 l 1
 78 -192 71 -192 64 -189 c 2x10
 62 -188 l 1
 62 -175 l 1
 62 -129 l 2
 63 -111 63 -96 63 -96 c 1
 62 -96 50 -98 36 -101 c 0
 18 -104 8 -106 8 -106 c 2
 4 -106 2 -104 1 -101 c 2
 0 -98 l 1
 -2 34 l 2x60
 -2 108 -4 172 -4 178 c 2
 -4 188 l 1x80
 -2 188 l 1
 0 189 2 190 3 190 c 2x40
65 55 m 0
 65 56 65 56 64 56 c 2
 20 48 l 1
 20 47 18 -56 18 -56 c 1
 19 -56 63 -48 64 -48 c 1x10
 64 -47 65 33 65 55 c 0
EndSplineSet
EndChar
StartChar: uniE112
Encoding: 57618 57618 38
Width: 100
GlyphClass: 2
Flags: MW
VStem: -10 20<56 68 56 56>
Fore
-6 232 m 1
 0 232 7 232 12 230 c 1
 14 228 l 1
 14 228 11 86 10 68 c 2
 10 56 l 1
 13 58 l 2
 24 66 38 72 52 73 c 0
 66 74 76 70 84 60 c 1
 89 56 92 52 94 46 c 1
 102 31 102 14 95 0 c 0
 92 -7 87 -13 80 -20 c 0
 73 -27 66 -32 50 -44 c 0
 28 -60 26 -63 20 -70 c 0
 17 -74 14 -77 14 -78 c 1
 11 -80 7 -82 4 -82 c 0
 2 -82 -2 -80 -4 -77 c 1
 -8 -74 -8 -83 -10 67 c 0
 -12 142 -13 210 -14 216 c 1
 -14 228 l 1
 -11 230 l 1
 -10 230 -8 231 -6 232 c 1
48 50 m 2
 46 52 44 52 41 52 c 0
 36 52 34 52 30 50 c 0
 22 46 16 36 15 26 c 0
 15 24 14 12 14 -1 c 0
 14 -23 14 -36 16 -47 c 1
 16 -50 l 1
 22 -45 l 2
 30 -38 42 -27 46 -21 c 0
 52 -12 58 -2 60 6 c 0
 61 10 61 12 61 19 c 0
 61 26 61 28 60 32 c 0
 58 42 54 47 48 50 c 2
EndSplineSet
EndChar
StartChar: uniE113
Encoding: 57619 57619 39
Width: 100
GlyphClass: 2
Flags: MW
VStem: 70 22<-72 -47> 74 22
Fore
78 231 m 1x40
 84 232 92 232 96 230 c 0
 98 229 98 228 98 228 c 1
 98 228 97 161 96 79 c 0x40
 93 -46 92 -70 92 -72 c 1x80
 90 -80 82 -84 76 -80 c 0
 72 -78 70 -77 66 -70 c 1
 60 -63 57 -60 35 -44 c 0
 18 -32 12 -27 5 -20 c 0
 -2 -13 -6 -7 -10 0 c 0
 -16 14 -16 31 -10 46 c 0
 -7 52 -4 56 0 60 c 0
 10 70 20 74 32 73 c 0
 47 72 62 66 72 58 c 2
 74 56 l 1
 74 68 l 2
 74 86 71 228 71 228 c 1
 72 229 76 230 78 231 c 1x40
54 50 m 0
 50 52 50 52 46 52 c 0
 36 52 29 46 25 32 c 0
 24 28 24 26 24 19 c 0
 24 12 24 10 25 6 c 0
 27 -2 32 -12 39 -21 c 0
 44 -27 54 -38 63 -45 c 2
 70 -50 l 1
 70 -47 l 2
 71 -36 71 -23 71 -1 c 0
 70 12 70 24 70 26 c 0x80
 69 34 64 42 60 46 c 1
 58 47 56 49 54 50 c 0
EndSplineSet
EndChar
StartChar: uniE114
Encoding: 57620 57620 40
Width: 181
GlyphClass: 2
Flags: MW
VStem: -10 20<-42 28 -42 -42 56 68 56 56> 69 23 73 23
Fore
-6 232 m 1xa0
 0 232 7 232 12 230 c 1
 14 228 l 1
 14 228 11 87 10 68 c 2
 10 56 l 1
 14 60 l 2
 24 69 35 74 48 73 c 0
 55 72 62 70 68 66 c 1
 71 63 l 1
 71 63 70 100 69 144 c 0
 68 188 68 224 68 226 c 2
 68 228 l 1
 70 230 l 1
 76 232 82 232 88 231 c 1
 90 230 94 229 95 228 c 1
 95 228 92 86 92 68 c 2
 92 56 l 1xc0
 94 58 l 2
 102 66 116 71 128 72 c 0
 138 74 146 72 156 68 c 0
 173 59 184 36 180 14 c 0
 178 2 172 -8 161 -20 c 0
 154 -28 147 -33 130 -45 c 2
 106 -63 l 1
 106 -64 103 -68 100 -70 c 1
 98 -74 96 -77 94 -78 c 2
 92 -80 88 -82 86 -82 c 0
 82 -82 78 -80 76 -77 c 0
 74 -74 74 -73 73 -44 c 0
 72 -29 72 -16 72 -16 c 1
 70 -20 l 1
 65 -25 57 -32 42 -46 c 0
 24 -62 22 -64 18 -70 c 0
 16 -73 14 -76 13 -78 c 1
 11 -80 7 -82 4 -82 c 0
 2 -82 -2 -80 -4 -77 c 1
 -8 -74 -8 -83 -10 67 c 0
 -12 142 -13 210 -14 216 c 1
 -14 228 l 1
 -11 230 l 1
 -10 230 -8 231 -6 232 c 1xa0
36 50 m 0
 32 53 24 52 20 48 c 1
 16 45 12 36 10 28 c 1
 10 -42 l 1
 11 -46 12 -50 12 -51 c 0
 12 -52 14 -50 17 -46 c 0
 32 -29 40 -14 44 4 c 2
 46 8 46 11 46 20 c 0
 46 26 46 32 45 34 c 2
 44 42 40 48 36 50 c 0
127 50 m 1
 122 53 114 52 108 48 c 0
 103 45 99 38 97 31 c 0
 96 28 96 26 96 4 c 0
 95 -20 95 -33 96 -47 c 2
 96 -50 l 1xa0
 100 -48 l 1
 112 -37 122 -26 128 -18 c 0
 133 -10 136 -4 138 6 c 2
 140 10 140 11 140 20 c 0
 140 28 140 28 138 34 c 0
 136 42 132 48 127 50 c 1
EndSplineSet
EndChar
StartChar: uniE115
Encoding: 57621 57621 41
Width: 181
GlyphClass: 2
Flags: MW
VStem: -14 28<225.5 227> -12 24<125 125.5> -9 19 68 26<58 66> 70 22<94 108> 73 23
Fore
-6 232 m 1x80
 0 232 6 232 11 230 c 1
 14 228 l 1
 14 217 l 2x80
 13 192 12 126 12 125 c 1
 12 125 68 156 69 157 c 1
 69 158 68 172 68 191 c 2
 68 226 l 2x50
 68 228 68 228 70 230 c 1
 78 233 85 233 92 230 c 1x08
 95 228 l 1
 95 218 l 1
 94 212 94 199 94 189 c 2
 94 172 l 1
 113 182 l 2
 130 192 132 194 135 194 c 0
 140 194 144 192 148 188 c 1
 148 182 l 2
 148 178 148 176 146 173 c 0
 145 172 135 166 119 157 c 2
 94 142 l 1x10
 93 140 93 126 92 108 c 2
 92 66 l 1
 92 56 l 1x08
 94 58 l 2
 102 66 116 71 128 72 c 0
 138 74 146 72 156 68 c 0
 173 59 184 36 180 14 c 0
 178 2 172 -8 161 -20 c 0
 154 -28 147 -33 130 -45 c 2
 106 -63 l 1
 106 -64 103 -68 100 -70 c 1
 98 -74 96 -77 94 -78 c 2x10
 92 -80 88 -82 86 -82 c 0
 82 -82 78 -80 76 -77 c 0
 74 -74 74 -73 73 -44 c 0x04
 72 -29 72 -16 72 -16 c 1
 70 -20 l 1
 65 -25 57 -32 42 -46 c 0
 24 -62 22 -64 18 -70 c 0
 16 -73 14 -76 13 -78 c 1
 11 -80 7 -82 4 -82 c 0
 2 -82 -2 -80 -4 -77 c 1
 -8 -74 -8 -78 -9 4 c 0x28
 -10 46 -10 80 -10 81 c 2
 -10 83 l 1
 -33 70 l 2
 -50 60 -56 57 -58 56 c 1
 -63 56 -68 58 -70 62 c 0
 -72 65 -72 66 -72 69 c 0
 -72 72 -72 73 -71 75 c 1
 -70 76 -69 78 -68 78 c 1
 -68 79 -55 86 -40 95 c 0
 -24 104 -12 111 -12 112 c 2
 -12 168 l 2x40
 -13 198 -14 225 -14 226 c 0
 -14 228 -14 228 -11 230 c 1
 -10 230 -8 231 -6 232 c 1x80
70 126 m 2x08
 70 128 70 128 69 128 c 1
 40 112 l 1
 12 96 l 1
 12 93 l 2x48
 12 92 11 83 11 74 c 2
 10 56 l 1x20
 14 60 l 2
 24 69 35 74 48 73 c 0
 55 72 62 70 68 66 c 1x90
 71 63 l 1
 71 63 70 77 70 94 c 2
 70 126 l 2x08
36 50 m 0
 32 53 24 52 20 48 c 1
 16 45 12 36 10 28 c 1
 10 -42 l 1x20
 11 -46 12 -50 12 -51 c 0
 12 -52 14 -50 17 -46 c 0
 32 -29 40 -14 44 4 c 2
 46 8 46 11 46 20 c 0
 46 26 46 32 45 34 c 2
 44 42 40 48 36 50 c 0
127 50 m 1
 122 53 114 52 108 48 c 0
 103 45 99 38 97 31 c 0
 96 28 96 26 96 4 c 0
 95 -20 95 -33 96 -47 c 2
 96 -50 l 1x04
 100 -48 l 1
 112 -37 122 -26 128 -18 c 0
 133 -10 136 -4 138 6 c 2
 140 10 140 11 140 20 c 0
 140 28 140 28 138 34 c 0
 136 42 132 48 127 50 c 1
EndSplineSet
EndChar
StartChar: uniE116
Encoding: 57622 57622 42
Width: 125
GlyphClass: 2
Flags: MW
HStem: 13.9573 51.0427
VStem: 76 49<-54.5 -16 -17 0> 76 54<-66 -43>
Fore
-3 66 m 1xa0
 -2 67 -2 68 -1 68 c 0
 0 68 10 66 22 65 c 0
 37 64 45 62 46 62 c 1
 48 61 49 59 49 50 c 0
 50 36 54 24 60 16 c 1
 62 14 l 1
 64 16 l 2
 72 24 76 36 76 50 c 0xc0
 76 59 76 61 79 62 c 1
 81 64 126 68 128 67 c 2
 128 67 129 66 130 66 c 1xa0
 130 64 130 63 128 41 c 0
 126 28 125 18 125 16 c 1xc0
 124 14 122 14 116 14 c 0
 100 13 90 10 82 4 c 1
 80 4 78 2 78 2 c 1
 76 0 l 1xa0
 78 -2 l 1
 78 -2 80 -4 82 -4 c 1
 90 -10 98 -12 114 -14 c 0
 122 -14 124 -14 125 -16 c 1xc0
 125 -18 126 -28 128 -41 c 0
 130 -63 130 -64 130 -66 c 1
 129 -66 128 -67 128 -67 c 2
 126 -68 81 -64 79 -62 c 1
 76 -61 76 -59 76 -50 c 0
 76 -36 72 -24 64 -16 c 2
 62 -14 l 1
 60 -16 l 1
 54 -24 50 -36 49 -50 c 0
 49 -59 48 -61 46 -62 c 1
 44 -64 0 -68 -2 -67 c 2
 -3 -67 -4 -66 -4 -66 c 1
 -5 -64 -5 -63 -2 -41 c 0
 -2 -28 0 -18 0 -16 c 1
 1 -14 2 -14 12 -14 c 1
 26 -12 36 -10 44 -4 c 2
 45 -4 47 -2 48 -2 c 1
 48 0 l 1
 48 2 l 1
 47 2 45 4 44 4 c 2
 35 10 25 13 9 14 c 0
 2 14 1 14 0 16 c 1
 0 18 -5 64 -5 64 c 1
 -4 65 -4 66 -3 66 c 1xa0
EndSplineSet
EndChar
StartChar: uniE119
Encoding: 57625 57625 43
Width: 56
GlyphClass: 2
Flags: MW
HStem: -28 56
Fore
23 28 m 0
 26 29 34 28 38 27 c 0
 46 24 52 18 55 10 c 0
 56 6 56 6 56 0 c 0
 56 -5 56 -6 55 -9 c 0
 52 -18 46 -24 37 -26 c 2
 34 -28 32 -28 28 -28 c 0
 24 -28 22 -28 20 -26 c 2
 10 -24 5 -18 2 -9 c 1
 0 -6 0 -5 0 0 c 0
 0 5 0 6 2 9 c 1
 2 13 6 18 8 20 c 0
 11 24 18 27 23 28 c 0
EndSplineSet
EndChar
StartChar: uniE11A
Encoding: 57626 57626 44
Width: 247
GlyphClass: 2
Flags: MW
HStem: -69 138<-9 -9>
VStem: -20 25<-60 -40 -60 1 40 60> 242 26<-40 -20 -20 -20 20 40 40 40>
Fore
-12 68 m 0
 -11 68 -9 69 -8 69 c 0
 -3 69 1 66 4 62 c 1
 5 60 l 1
 5 40 l 1
 6 20 l 1
 8 24 l 2
 20 42 47 58 79 64 c 0
 108 70 140 70 168 64 c 0
 200 58 228 42 240 24 c 2
 242 20 l 1
 242 40 l 1
 243 60 l 1
 244 62 l 2
 247 67 252 70 256 69 c 0
 262 68 266 65 268 60 c 1
 268 0 l 1
 268 -60 l 1
 264 -70 250 -72 244 -62 c 2
 243 -60 l 1
 242 -40 l 1
 242 -20 l 1
 240 -24 l 2
 228 -42 200 -58 168 -64 c 0
 140 -70 108 -70 79 -64 c 0
 47 -58 20 -42 8 -24 c 2
 6 -20 l 1
 5 -40 l 1
 5 -60 l 1
 4 -62 l 1
 0 -67 -4 -70 -9 -69 c 0
 -14 -68 -18 -64 -20 -60 c 1
 -20 1 l 1
 -20 60 l 1
 -19 62 l 1
 -18 66 -15 68 -12 68 c 0
120 54 m 0
 114 56 104 56 100 56 c 1
 92 54 84 48 80 41 c 0
 73 30 71 10 76 -7 c 0
 82 -31 102 -49 129 -55 c 0
 135 -56 146 -56 150 -55 c 0
 160 -52 167 -44 171 -34 c 0
 175 -23 176 -8 172 7 c 0
 166 30 146 48 120 54 c 0
EndSplineSet
EndChar
StartChar: uniE11B
Encoding: 57627 57627 45
Width: 247
GlyphClass: 2
Flags: MW
HStem: 56 12
VStem: 0 247<-5 5>
Fore
107 68 m 0
 128 70 150 68 168 64 c 0
 200 58 228 42 240 24 c 0
 246 16 247 10 247 0 c 0
 247 -10 246 -16 240 -24 c 0
 228 -42 200 -58 168 -64 c 0
 140 -70 108 -70 79 -64 c 0
 47 -58 20 -42 8 -24 c 0
 2 -16 0 -10 0 0 c 0
 0 10 2 16 8 24 c 0
 24 48 62 66 107 68 c 0
120 54 m 0
 114 56 104 56 100 56 c 1
 92 54 84 48 80 41 c 0
 73 30 71 10 76 -7 c 0
 82 -31 102 -49 129 -55 c 0
 135 -56 146 -56 150 -55 c 0
 160 -52 167 -44 171 -34 c 0
 175 -23 176 -8 172 7 c 0
 166 30 146 48 120 54 c 0
EndSplineSet
EndChar
StartChar: uniE11C
Encoding: 57628 57628 46
Width: 173
Flags: W
TeX: 0 0 0 0
HStem: 52 16
VStem: 2 170<-44 44>
Fore
116 68 m 2
 134 68 l 2
 142 68 144 68 148 67 c 0
 155 65 160 62 164 58 c 0
 168 54 170 50 172 44 c 0
 174 38 174 27 172 19 c 0
 167 -4 158 -23 146 -36 c 0
 130 -52 100 -63 68 -66 c 0
 35 -70 20 -68 10 -58 c 0
 6 -54 4 -50 2 -44 c 0
 0 -38 0 -27 2 -19 c 0
 6 4 16 23 28 35 c 0
 34 42 40 46 52 52 c 0
 70 60 89 66 116 68 c 2
142 52 m 0
 135 54 128 52 114 45 c 0
 103 40 86 30 61 12 c 0
 34 -4 22 -15 18 -22 c 1
 16 -29 15 -36 18 -42 c 0
 23 -52 34 -56 46 -52 c 0
 58 -47 78 -36 112 -12 c 0
 139 4 151 15 155 22 c 0
 158 29 158 36 156 42 c 1
 152 48 148 50 142 52 c 0
EndSplineSet
EndChar
StartChar: uniE0FD
Encoding: 57597 57597 47
Width: 164
Flags: W
TeX: 0 0 0 0
VStem: 0 18<-201 39 -201 65 -201 39> 147 17<157 253 253 400 400 400>
Fore
0 65 m 1
 0 -201 l 1
 18 -201 l 1
 18 39 l 1
 0 65 l 1
164 134 m 1
 147 157 l 1
 147 253 l 1
 147 400 l 1
 164 400 l 1
 164 496 l 1
 164 134 l 1
100 167 m 0
 106 168 120 167 125 167 c 1
 145 162 158 151 163 135 c 0
 164 129 164 117 164 111 c 1
 159 91 145 71 125 55 c 0
 108 43 88 35 70 31 c 0
 62 30 47 30 41 31 c 0
 20 35 6 47 2 64 c 1
 0 69 0 81 1 87 c 0
 6 107 20 127 40 143 c 0
 58 157 79 165 100 167 c 0
EndSplineSet
EndChar
StartChar: uniE0FE
Encoding: 57598 57598 48
Width: 56
Flags: W
TeX: 0 0 0 0
HStem: -28 56
Fore
113 28 m 0
 116 29 124 28 128 27 c 0
 136 24 142 18 145 10 c 0
 146 6 146 6 146 0 c 0
 146 -5 146 -6 145 -9 c 0
 142 -18 136 -24 127 -26 c 2
 124 -28 122 -28 118 -28 c 0
 114 -28 112 -28 110 -26 c 2
 100 -24 95 -18 92 -9 c 1
 90 -6 90 -5 90 0 c 0
 90 5 90 6 92 9 c 1
 92 13 96 18 98 20 c 0
 101 24 108 27 113 28 c 0
23 28 m 0
 26 29 34 28 38 27 c 0
 46 24 52 18 55 10 c 0
 56 6 56 6 56 0 c 0
 56 -5 56 -6 55 -9 c 0
 52 -18 46 -24 37 -26 c 2
 34 -28 32 -28 28 -28 c 0
 24 -28 22 -28 20 -26 c 2
 10 -24 5 -18 2 -9 c 1
 0 -6 0 -5 0 0 c 0
 0 5 0 6 2 9 c 1
 2 13 6 18 8 20 c 0
 11 24 18 27 23 28 c 0
EndSplineSet
EndChar
StartChar: uniE10D
Encoding: 57613 57613 49
Width: 187
Flags: W
TeX: 0 0 0 0
VStem: -30 218
Fore
100 352 m 0
 108 354 116 352 124 348 c 1
 131 342 134 336 138 323 c 1
 140 310 142 307 146 304 c 1
 150 304 152 303 155 304 c 1
 158 306 164 316 170 329 c 0
 174 338 176 339 180 340 c 1
 182 340 185 338 186 336 c 1
 188 335 l 1
 128 -18 l 2
 96 -213 70 -373 69 -374 c 1
 68 -376 61 -380 55 -380 c 0
 52 -380 46 -378 44 -376 c 2
 41 -375 41 -375 41 -374 c 1
 42 -373 48 -336 56 -292 c 0
 64 -249 71 -212 72 -212 c 1
 72 -210 l 1
 63 -214 l 2
 37 -222 14 -225 2 -222 c 0
 -10 -218 -21 -210 -26 -200 c 0
 -30 -194 -30 -190 -30 -183 c 0
 -30 -178 -30 -176 -29 -172 c 0
 -26 -165 -21 -158 -14 -154 c 0
 0 -144 18 -146 28 -158 c 0
 32 -162 34 -167 36 -177 c 0
 40 -190 41 -193 46 -196 c 0
 50 -198 54 -196 60 -192 c 1
 66 -186 74 -175 78 -166 c 2
 80 -161 l 1
 88 -124 l 1
 94 -86 l 1
 94 -86 91 -88 86 -89 c 0
 62 -97 40 -100 27 -96 c 0
 15 -94 4 -86 0 -76 c 1
 -4 -70 -4 -66 -4 -58 c 2
 -4 -48 l 1
 0 -40 4 -33 11 -28 c 0
 25 -20 43 -21 54 -32 c 0
 58 -36 60 -42 62 -52 c 0
 65 -66 66 -68 71 -70 c 1
 74 -72 77 -72 80 -70 c 1
 85 -68 92 -58 98 -48 c 0
 104 -39 104 -40 110 0 c 0
 114 20 118 38 118 38 c 1
 118 38 115 38 111 36 c 0
 100 33 91 30 82 28 c 1
 65 28 l 2
 54 28 51 28 43 32 c 0
 32 37 25 46 22 56 c 0
 20 60 20 62 20 67 c 0
 20 72 20 74 22 78 c 0
 24 85 30 92 36 96 c 0
 50 106 68 104 78 92 c 0
 82 88 84 83 87 73 c 0
 90 60 92 57 96 54 c 1
 102 52 106 54 114 64 c 0
 118 68 121 74 124 82 c 2
 126 86 l 1
 134 124 l 1
 141 163 l 1
 140 163 138 162 134 161 c 0
 110 153 90 150 78 154 c 1
 66 156 55 164 50 174 c 0
 46 180 46 184 46 192 c 0
 46 198 46 198 47 202 c 0
 50 210 55 217 62 222 c 0
 76 230 94 229 104 218 c 0
 108 214 110 208 112 198 c 0
 116 184 117 182 122 180 c 1
 125 178 128 178 130 180 c 0
 136 184 144 196 148 206 c 0
 150 210 150 215 157 249 c 0
 160 270 164 288 164 288 c 1
 164 288 160 286 156 285 c 0
 139 280 128 278 116 278 c 0
 104 278 102 278 94 282 c 0
 82 287 76 296 72 306 c 0
 71 310 71 312 71 317 c 0
 71 322 71 324 72 328 c 0
 76 340 86 349 100 352 c 0
EndSplineSet
EndChar
StartChar: uniE102
Encoding: 57602 57602 50
Width: 200
VWidth: 620
Flags: W
TeX: 0 0 0 0
HStem: 172 16<130.618 150.5>
VStem: 170 10.5<178.5 460>
Fore
180.5 164.5 m 1
 180.5 460 l 1
 170 460 l 1
 170 180.257 l 1
 170 178.5 l 1
 180.19 164.913 l 1
 180.5 164.5 l 1
124.5 188 m 2
 142.5 188 l 2
 150.5 188 152.5 188 156.5 187 c 0
 162.115 185.396 166.443 183.148 170 180.257 c 0
 170.878 179.544 171.708 178.792 172.5 178 c 4
 176.294 174.206 178.288 170.413 180.19 164.913 c 2
 180.5 164 l 2
 182.5 158 182.5 147 180.5 139 c 0
 175.5 116 166.5 97 154.5 84 c 0
 138.5 68 108.5 57 76.5 54 c 0
 43.5 50 28.5 52 18.5 62 c 0
 14.5 66 12.5 70 10.5 76 c 0
 8.5 82 8.5 93 10.5 101 c 0
 14.5 124 24.5 143 36.5 155 c 0
 42.5 162 48.5 166 60.5 172 c 0
 78.5 180 97.5 186 124.5 188 c 2
150.5 172 m 0
 143.5 174 136.5 172 122.5 165 c 0
 111.5 160 94.5 150 69.5 132 c 0
 42.5 116 30.5 105 26.5 98 c 1
 24.5 91 23.5 84 26.5 78 c 0
 31.5 68 42.5 64 54.5 68 c 0
 66.5 73 86.5 84 120.5 108 c 0
 147.5 124 159.5 135 163.5 142 c 0
 166.5 149 166.5 156 164.5 162 c 1
 160.5 168 156.5 170 150.5 172 c 0
EndSplineSet
EndChar
StartChar: uniE11D
Encoding: 57629 57629 51
Width: 163
Flags: W
TeX: 0 0 0 0
VStem: 0.656854 163
Fore
99.6572 68 m 0
 105.657 69 119.657 68 124.657 68 c 1
 144.657 63 157.657 52 162.657 36 c 0
 163.657 30 163.657 18 163.657 12 c 1
 158.657 -8 144.657 -28 124.657 -44 c 0
 107.657 -56 87.6572 -64 69.6572 -68 c 0
 61.6572 -69 46.6572 -69 40.6572 -68 c 0
 19.6572 -64 5.65723 -52 1.65723 -35 c 1
 -0.342773 -30 -0.342773 -18 0.657227 -12 c 0
 5.65723 8 19.6572 28 39.6572 44 c 0
 57.6572 58 78.6572 66 99.6572 68 c 0
EndSplineSet
EndChar
StartChar: uniE103
Encoding: 57603 57603 52
Width: 500
TeX: 0 0 0 0
Fore
304.5 -249 m 25,0,-1
330.409 -110.999 m 0,1,-1
 91.5 -270 l 9,2,-1
 136.5 79.5 l 17,3,-1
 370.5 102 l 0,4,-1
 531 22.5 l 1,5,-1
 409.5 -63 l 9,6,-1
 500 -199.5 l 29,7,-1
 448.5 -238.5 l 25,8,-1
 402.444 -188.774 330.409 -110.999 330.409 -110.999 c 0,1,-1
EndSplineSet
EndChar
